HIERARCHY
ROOT Hips
{
    OFFSET   0.000000   0.000000   0.000000
    CHANNELS 6 Xposition Yposition Zposition Zrotation Xrotation Yrotation
    JOINT Chest
    {
        OFFSET   0.000000   8.007230   0.000000
        CHANNELS 3 Zrotation Xrotation Yrotation
        JOINT Chest2
        {
            OFFSET   0.000000  22.077100   0.000000
            CHANNELS 3 Zrotation Xrotation Yrotation
            JOINT Neck
            {
                OFFSET   0.000000  23.255100   0.000000
                CHANNELS 3 Zrotation Xrotation Yrotation
                JOINT Head
                {
                    OFFSET   0.000000  14.370100   1.956600
                    CHANNELS 3 Zrotation Xrotation Yrotation
                    End Site
                    {
                        OFFSET   0.000000  19.566000   0.000000
                    }
                }
            }
            JOINT LeftCollar
            {
                OFFSET   3.911900  19.017000  -0.467063
                CHANNELS 3 Zrotation Xrotation Yrotation
                JOINT LeftShoulder
                {
                    OFFSET  10.383700   0.000000   0.000000
                    CHANNELS 3 Zrotation Xrotation Yrotation
                    JOINT LeftElbow
                    {
                        OFFSET  26.662100   0.001193   0.000980
                        CHANNELS 3 Zrotation Xrotation Yrotation
                        JOINT LeftWrist
                        {
                            OFFSET  28.869000  -0.000059  -0.000082
                            CHANNELS 3 Zrotation Xrotation Yrotation
                            JOINT LeftFinger0
                            {
                                OFFSET   2.044650  -2.323450   3.252850
                                CHANNELS 3 Zrotation Xrotation Yrotation
                                JOINT LeftFinger01
                                {
                                    OFFSET   3.088130   0.000000   0.000000
                                    CHANNELS 3 Zrotation Xrotation Yrotation
                                    JOINT LeftFinger02
                                    {
                                        OFFSET   2.639460   0.000000   0.000000
                                        CHANNELS 3 Zrotation Xrotation Yrotation
                                        End Site
                                        {
                                            OFFSET   2.582190   0.000000   0.000000
                                        }
                                    }
                                }
                            }
                            JOINT LeftFinger1
                            {
                                OFFSET   8.364480   0.000000   3.252850
                                CHANNELS 3 Zrotation Xrotation Yrotation
                                JOINT LeftFinger11
                                {
                                    OFFSET   4.646930   0.000000   0.000000
                                    CHANNELS 3 Zrotation Xrotation Yrotation
                                    JOINT LeftFinger12
                                    {
                                        OFFSET   2.323470   0.000000   0.000000
                                        CHANNELS 3 Zrotation Xrotation Yrotation
                                        End Site
                                        {
                                            OFFSET   2.273050   0.000000   0.000000
                                        }
                                    }
                                }
                            }
                            JOINT LeftFinger2
                            {
                                OFFSET   8.364490   0.000016   1.078090
                                CHANNELS 3 Zrotation Xrotation Yrotation
                                JOINT LeftFinger21
                                {
                                    OFFSET   5.111610   0.000000   0.000000
                                    CHANNELS 3 Zrotation Xrotation Yrotation
                                    JOINT LeftFinger22
                                    {
                                        OFFSET   2.788150   0.000016   0.000000
                                        CHANNELS 3 Zrotation Xrotation Yrotation
                                        End Site
                                        {
                                            OFFSET   2.727660   0.000000   0.000000
                                        }
                                    }
                                }
                            }
                            JOINT LeftFinger3
                            {
                                OFFSET   7.899780   0.000015  -1.078090
                                CHANNELS 3 Zrotation Xrotation Yrotation
                                JOINT LeftFinger31
                                {
                                    OFFSET   4.646930   0.000000   0.000000
                                    CHANNELS 3 Zrotation Xrotation Yrotation
                                    JOINT LeftFinger32
                                    {
                                        OFFSET   2.323470   0.000000   0.000000
                                        CHANNELS 3 Zrotation Xrotation Yrotation
                                        End Site
                                        {
                                            OFFSET   2.273050   0.000000   0.000000
                                        }
                                    }
                                }
                            }
                            JOINT LeftFinger4
                            {
                                OFFSET   7.435090   0.000000  -3.252850
                                CHANNELS 3 Zrotation Xrotation Yrotation
                                JOINT LeftFinger41
                                {
                                    OFFSET   3.717550   0.000000   0.000000
                                    CHANNELS 3 Zrotation Xrotation Yrotation
                                    JOINT LeftFinger42
                                    {
                                        OFFSET   1.858770   0.000000   0.000000
                                        CHANNELS 3 Zrotation Xrotation Yrotation
                                        End Site
                                        {
                                            OFFSET   1.818440   0.000000   0.000000
                                        }
                                    }
                                }
                            }
                        }
                    }
                }
            }
            JOINT RightCollar
            {
                OFFSET  -3.911910  19.017000  -0.467062
                CHANNELS 3 Zrotation Xrotation Yrotation
                JOINT RightShoulder
                {
                    OFFSET -10.383700   0.000014   0.000000
                    CHANNELS 3 Zrotation Xrotation Yrotation
                    JOINT RightElbow
                    {
                        OFFSET -26.662100   0.001225   0.001091
                        CHANNELS 3 Zrotation Xrotation Yrotation
                        JOINT RightWrist
                        {
                            OFFSET -28.869000  -0.000020  -0.000085
                            CHANNELS 3 Zrotation Xrotation Yrotation
                            JOINT RightFinger0
                            {
                                OFFSET  -2.044650  -2.323490   3.252850
                                CHANNELS 3 Zrotation Xrotation Yrotation
                                JOINT RightFinger01
                                {
                                    OFFSET  -3.088130   0.000000   0.000000
                                    CHANNELS 3 Zrotation Xrotation Yrotation
                                    JOINT RightFinger02
                                    {
                                        OFFSET  -2.639460   0.000000   0.000000
                                        CHANNELS 3 Zrotation Xrotation Yrotation
                                        End Site
                                        {
                                            OFFSET  -2.582190   0.000000   0.000000
                                        }
                                    }
                                }
                            }
                            JOINT RightFinger1
                            {
                                OFFSET  -8.364480   0.000000   3.252850
                                CHANNELS 3 Zrotation Xrotation Yrotation
                                JOINT RightFinger11
                                {
                                    OFFSET  -4.646930   0.000000   0.000000
                                    CHANNELS 3 Zrotation Xrotation Yrotation
                                    JOINT RightFinger12
                                    {
                                        OFFSET  -2.323470   0.000000   0.000000
                                        CHANNELS 3 Zrotation Xrotation Yrotation
                                        End Site
                                        {
                                            OFFSET  -2.273050   0.000000   0.000000
                                        }
                                    }
                                }
                            }
                            JOINT RightFinger2
                            {
                                OFFSET  -8.364480   0.000000   1.078090
                                CHANNELS 3 Zrotation Xrotation Yrotation
                                JOINT RightFinger21
                                {
                                    OFFSET  -5.111620   0.000000   0.000000
                                    CHANNELS 3 Zrotation Xrotation Yrotation
                                    JOINT RightFinger22
                                    {
                                        OFFSET  -2.788160   0.000000   0.000000
                                        CHANNELS 3 Zrotation Xrotation Yrotation
                                        End Site
                                        {
                                            OFFSET  -2.727660   0.000000   0.000000
                                        }
                                    }
                                }
                            }
                            JOINT RightFinger3
                            {
                                OFFSET  -7.899780   0.000000  -1.078090
                                CHANNELS 3 Zrotation Xrotation Yrotation
                                JOINT RightFinger31
                                {
                                    OFFSET  -4.646930   0.000000   0.000000
                                    CHANNELS 3 Zrotation Xrotation Yrotation
                                    JOINT RightFinger32
                                    {
                                        OFFSET  -2.323470   0.000000   0.000000
                                        CHANNELS 3 Zrotation Xrotation Yrotation
                                        End Site
                                        {
                                            OFFSET  -2.273050   0.000000   0.000000
                                        }
                                    }
                                }
                            }
                            JOINT RightFinger4
                            {
                                OFFSET  -7.435090   0.000000  -3.252850
                                CHANNELS 3 Zrotation Xrotation Yrotation
                                JOINT RightFinger41
                                {
                                    OFFSET  -3.717550   0.000000   0.000000
                                    CHANNELS 3 Zrotation Xrotation Yrotation
                                    JOINT RightFinger42
                                    {
                                        OFFSET  -1.858760   0.000000   0.000000
                                        CHANNELS 3 Zrotation Xrotation Yrotation
                                        End Site
                                        {
                                            OFFSET  -1.818440   0.000000   0.000000
                                        }
                                    }
                                }
                            }
                        }
                    }
                }
            }
        }
    }
    JOINT LeftHip
    {
        OFFSET   9.783030   0.000000   0.000000
        CHANNELS 3 Zrotation Xrotation Yrotation
        JOINT LeftKnee
        {
            OFFSET   0.000063 -41.789100   0.000608
            CHANNELS 3 Zrotation Xrotation Yrotation
            JOINT LeftAnkle
            {
                OFFSET   0.000048 -41.133200  -0.000184
                CHANNELS 3 Zrotation Xrotation Yrotation
                JOINT LeftToe
                {
                    OFFSET   0.000000  -6.358960  14.674500
                    CHANNELS 3 Zrotation Xrotation Yrotation
                    End Site
                    {
                        OFFSET   0.000000   0.000000   3.913200
                    }
                }
            }
        }
    }
    JOINT RightHip
    {
        OFFSET  -9.783030   0.000000   0.000000
        CHANNELS 3 Zrotation Xrotation Yrotation
        JOINT RightKnee
        {
            OFFSET   0.000071 -41.789100   0.001239
            CHANNELS 3 Zrotation Xrotation Yrotation
            JOINT RightAnkle
            {
                OFFSET   0.000037 -41.133200  -0.000166
                CHANNELS 3 Zrotation Xrotation Yrotation
                JOINT RightToe
                {
                    OFFSET   0.000000  -6.358960  14.674500
                    CHANNELS 3 Zrotation Xrotation Yrotation
                    End Site
                    {
                        OFFSET   0.000000   0.000000   3.913200
                    }
                }
            }
        }
    }
}
MOTION
Frames: 4
Frame Time:   0.016667
  0.862604  89.536800  -1.440850  -2.843670  -4.793300   1.105970   1.840170   4.510010  -0.521381   3.738990   9.000630  -1.193850   0.281065  -0.239152   0.002449   0.466905  -0.485158   7.656860  -7.703480   2.583160   0.467136 -70.823400  14.481000 -12.377500  -2.134870  -7.875810 -11.479600   7.100720  -7.128150  10.880700  43.161900  31.629400 -64.584200 -23.307000   0.013811   0.009537  -6.653490   0.002692   0.005497 -29.770500   4.977970  -8.625700 -24.665000   0.006343  -0.003312 -17.264000   0.004158   0.010745 -27.331800   1.072870  -2.074990 -28.457400  -0.000940   0.012007 -18.952600  -0.000482   0.003432 -26.355400  -2.024120   4.073030 -26.427200  -0.001934   0.003515 -17.600500  -0.001398   0.000208 -29.746200  -2.261170   3.946510 -44.735800   0.000086  -0.002987 -29.794100   0.004981   0.008707   5.258590  -1.663900  11.587400  70.823700   6.364270   3.899940  -1.755980  -8.622930  12.041200 -21.924300 -10.674600  -2.153540 -50.510000  35.394100  71.060800  13.303100   0.009477  -0.006156   1.651580   0.004309  -0.000538  21.102600   2.757380   7.123390  17.405900   0.003314  -0.004338  12.184200   0.003173  -0.005859  19.568500   1.781780   4.976050  19.646000  -0.000393   0.000791  13.084200   0.004062   0.000494  20.416600  -0.161689  -0.434743  20.417200   0.002349  -0.000492  13.597900   0.002131  -0.000318  24.091600  -0.599539  -1.350270  36.147900   0.000941   0.000805  24.074500   0.000898  -0.002242   3.665090   7.639840   4.950440   0.980923   0.086316  12.032000  -2.234320  -1.977930   3.896960  -0.000000   0.000000   0.000000   0.684787   3.132680  -4.498800   1.022910   4.670130  -9.420450  -1.623160  -2.363130  -3.188640  -0.000000   0.000000   0.000000
  0.862552  89.536900  -1.430230  -2.844560  -4.783810   1.097400   1.836810   4.501150  -0.515353   3.731610   8.983160  -1.181160   0.282001  -0.245522   0.002450   0.468792  -0.497944   7.671190  -7.694320   2.583220   0.466673 -70.844100  14.473700 -12.348700  -2.131270  -7.840170 -11.459800   7.107260  -7.133220  10.866000  43.152400  31.615000 -64.579800 -23.304500   0.013811   0.009547  -6.652250   0.002692   0.005492 -29.775800   4.972670  -8.614830 -24.668700   0.006340  -0.003313 -17.263400   0.004158   0.010747 -27.331800   1.072870  -2.074990 -28.473600  -0.000941   0.012011 -18.963400  -0.000483   0.003430 -26.370300  -2.025930   4.076310 -26.442300  -0.001937   0.003516 -17.610500  -0.001399   0.000206 -29.762000  -2.263480   3.949500 -44.759700   0.000085  -0.002987 -29.810000   0.004979   0.008703   5.267970  -1.663410  11.591000  70.827700   6.331750   3.874500  -1.751370  -8.618730  12.037400 -21.952200 -10.664600  -2.180600 -50.529900  35.416900  71.108000  13.312800   0.009478  -0.006144   1.656430   0.004311  -0.000537  21.078900   2.757380   7.123390  17.386200   0.003312  -0.004340  12.170400   0.003174  -0.005861  19.568500   1.782230   4.981220  19.646200  -0.000392   0.000792  13.084300   0.004061   0.000495  20.410600  -0.161689  -0.434743  20.411300   0.002352  -0.000494  13.594000   0.002131  -0.000318  24.069100  -0.599002  -1.350520  36.114100   0.000938   0.000806  24.051900   0.000899  -0.002242   3.663790   7.655330   4.950720   0.982329   0.051506  12.040900  -2.230590  -1.967490   3.897590  -0.000000   0.000000   0.000000   0.684759   3.145350  -4.498630   1.020330   4.652100  -9.424260  -1.623070  -2.367600  -3.177770   0.000000   0.000000  -0.000000
  0.862462  89.536900  -1.412700  -2.845560  -4.768370   1.088820   1.830840   4.486470  -0.505696   3.718600   8.954190  -1.160770   0.284356  -0.255862   0.002451   0.472078  -0.518781   7.692200  -7.685160   2.583280   0.466209 -70.871800  14.463400 -12.301700  -2.128920  -7.790270 -11.432300   7.113730  -7.141770  10.845700  43.138700  31.592700 -64.567200 -23.298600   0.013812   0.009557  -6.649310   0.002693   0.005487 -29.783900   4.963530  -8.596510 -24.674100   0.006331  -0.003316 -17.262800   0.004154   0.010751 -27.331700   1.072870  -2.074990 -28.489700  -0.000944   0.012023 -18.974200  -0.000484   0.003425 -26.385000  -2.029550   4.083410 -26.457300  -0.001943   0.003519 -17.620600  -0.001403   0.000201 -29.777400  -2.267860   3.956180 -44.783600   0.000082  -0.002986 -29.825900   0.004975   0.008692   5.284710  -1.662890  11.600100  70.830300   6.281180   3.831750  -1.742040  -8.614930  12.021300 -21.995000 -10.640600  -2.222220 -50.531500  35.439600  71.155300  13.328000   0.009479  -0.006132   1.664010   0.004313  -0.000535  21.053900   2.757380   7.123390  17.366300   0.003310  -0.004343  12.156400   0.003174  -0.005865  19.569600   1.782670   4.986390  19.647400  -0.000390   0.000793  13.085100   0.004059   0.000501  20.404700  -0.161690  -0.434744  20.405300   0.002355  -0.000496  13.590000   0.002130  -0.000318  24.046500  -0.598465  -1.352320  36.080300   0.000935   0.000806  24.029400   0.000901  -0.002240   3.661900   7.677690   4.951140   0.983187   0.001007  12.050200  -2.225160  -1.954800   3.898220  -0.000000   0.000000   0.000000   0.684731   3.158010  -4.498470   1.017440   4.630920  -9.430620  -1.623020  -2.375710  -3.163050  -0.000000   0.000000   0.000000
  0.862361  89.536900  -1.398900  -2.845610  -4.756550   1.090510   1.825020   4.474560  -0.498464   3.706130   8.930690  -1.145360   0.288324  -0.263620   0.002446   0.476636  -0.534663   7.704580  -7.685730   2.583270   0.468059 -70.883000  14.460500 -12.265200  -2.136060  -7.772860 -11.423600   7.111040  -7.150580  10.837900  43.138700  31.574900 -64.545600 -23.287500   0.013815   0.009555  -6.643760   0.002678   0.005488 -29.788000   4.954020  -8.579910 -24.676300   0.006314  -0.003322 -17.267700   0.004143   0.010757 -27.331800   1.069340  -2.068590 -28.476900  -0.000950   0.012043 -18.965600  -0.000487   0.003414 -26.379100  -2.033940   4.093260 -26.451700  -0.001950   0.003523 -17.616900  -0.001408   0.000192 -29.771100  -2.272690   3.965780 -44.774800   0.000079  -0.002983 -29.820000   0.004967   0.008672   5.301120  -1.664860  11.612900  70.824100   6.249850   3.798230  -1.731980  -8.616250  11.986300 -22.026800 -10.603400  -2.247680 -50.507500  35.434300  71.155800  13.335200   0.009473  -0.006151   1.667570   0.004315  -0.000543  21.053700   2.754510   7.115230  17.366200   0.003312  -0.004348  12.156300   0.003171  -0.005871  19.584900   1.779760   4.980690  19.662400  -0.000397   0.000797  13.095100   0.004059   0.000513  20.424800  -0.165761  -0.445175  20.425500   0.002355  -0.000497  13.603400   0.002128  -0.000318  24.059900  -0.602296  -1.355870  36.100500   0.000937   0.000806  24.042900   0.000897  -0.002236   3.660860   7.689690   4.951410   0.979526  -0.026961  12.050700  -2.222350  -1.952180   3.897670  -0.000000   0.000000  -0.000000   0.686964   3.157470  -4.498500   1.013110   4.628050  -9.435210  -1.621220  -2.383600  -3.158480   0.000000   0.000000   0.000000
